<?xml version="1.0" encoding="utf-8"?>
<!-- Generator: Adobe Illustrator 19.1.1, SVG Export Plug-In . SVG Version: 6.00 Build 0)  -->
<svg version="1.1" id="Layer_1" xmlns="http://www.w3.org/2000/svg" xmlns:xlink="http://www.w3.org/1999/xlink" x="0px" y="0px"
	 viewBox="0 0 503.3 630" style="enable-background:new 0 0 503.3 630;" xml:space="preserve">
<style type="text/css">
	.st0{fill:#BCD1E4;}
	.st1{fill:#434951;}
</style>
<g>
	<g>
		<path class="st0" d="M411.3,519.5v-64.8c0-74.6-61-135-135.6-135h-8.9c79.5,0,144.5-64.2,144.5-143.6v0.2
			c0-79.5-65-143.6-144.4-143.6h0H158.1c0,0-3.6,0.2,0,0.5c61.1,5.4,109.3,56.1,109.3,118.7v48c0,62.6-48.2,113.9-109.3,119.4
			c-3.6,0.3-0.2,0.5-0.2,0.5h5.1c57.4,0,104.4,46.6,104.4,103.9v40c0,79.5,64.2,144.1,143.6,144.1h-0.2h87.9
			C450.1,607.7,411.3,568.1,411.3,519.5z"/>
	</g>
</g>
<g>
	<path class="st1" d="M52.7,552c-19.9,0-36.1,16.2-36.1,36.1c0,19.9,16.2,36.1,36.1,36.1c19.9,0,36.1-16.2,36.1-36.1
		C88.8,568.2,72.6,552,52.7,552z M83.6,588.1c0,17-13.8,30.9-30.9,30.9s-30.9-13.8-30.9-30.9s13.8-30.9,30.9-30.9
		S83.6,571.1,83.6,588.1z"/>
	<path class="st1" d="M39.8,585.3c-2.3,1.1-3.5,3.3-3.6,6.5l0.3,6.8l30.8,11.1v-7c0-3.6-1.4-6.7-3.6-9.5c-2.2-2.7-5.6-4.8-9.7-6.3
		l-5-1.7C45.2,584.2,42.1,584.2,39.8,585.3z M45.5,588.3c1.1,0.2,2.2,0.4,3.3,0.8l5.1,1.8c3.2,1.1,5.6,2.6,7.2,4.5
		c1.6,1.9,2.4,4.2,2.3,6.8l0,2.7l-23.9-8.7l0-3.5c0.1-1.7,0.6-2.9,1.6-3.7C42.2,588.2,43.6,588,45.5,588.3z"/>
	<path class="st1" d="M46.3,575.6l-2.3-0.9l0.4,3.5l23,8.3v-3.6l-16.5-5.9c-2.1-1.6-3.3-3.3-3.3-5.1c0-0.5,0-1,0.1-1.6l-3.6-1.1
		c-0.2,0.7-0.3,1.2-0.3,1.5C43.5,572.2,44.4,573.9,46.3,575.6z"/>
	<path class="st1" d="M62.3,572.3c0,0.7,0.3,1.3,0.7,1.8c0.5,0.5,1,0.8,1.7,1c0.7,0.1,1.2,0,1.6-0.3c0.4-0.4,0.6-0.9,0.6-1.5
		c0-0.7-0.3-1.3-0.7-1.8c-0.4-0.5-1-0.9-1.7-1c-0.7-0.1-1.2,0-1.7,0.3C62.4,571.1,62.2,571.7,62.3,572.3z"/>
	<path class="st1" d="M41.9,219.4c2.3-3,2.6-6,0.8-9c-1.4-2.6-3.2-4.6-5.4-5.9c-2.3-1.3-4.8-2.2-7.5-2.6c-1.9,0.3-3.7,0.7-5.2,1.3
		c-1.6,0.6-2.8,1.9-3.6,3.8c-1.6,3.3-0.8,6.5,2.7,9.7c0.3,0.3,0.5,0.5,0.7,0.7c0.2,0.2,0.4,0.4,0.5,0.7c0.8,1.4,1.9,2.4,3.2,3.1
		c1.3,0.7,2.7,1.2,4.2,1.4C36.2,223.5,39.5,222.4,41.9,219.4z M33.3,216.7c-1.8,0-3.1-0.8-4.1-2.1c-1-1.4-2-2.5-3.1-3.7
		c-0.5-0.8-0.4-1.5,0.5-2.3c0.9-0.8,2.1-1,3.6-0.9c3.3,0.4,5.8,2,7.4,4.7c0.7,1,0.9,1.9,0.5,2.8c-0.3,0.9-1.1,1.2-2.2,1.4
		c-0.4,0.3-0.9,0.1-1.3,0.1C34.2,216.7,33.7,216.7,33.3,216.7z"/>
	<path class="st1" d="M110.1,534.6c-0.1-1-0.3-2-0.4-3c-0.1-1-0.3-2.1-0.6-3.2c-2.5-11.5-6.1-22.4-11-32.7
		c-4.9-10.3-11-19.9-18.4-29c-5.1-6.2-10.7-11.4-16.9-15.8c-6.2-4.4-13.2-7.6-21.1-9.7c-4.2-1.1-8.4-1.6-12.5-1.4
		c-4.1,0.1-8.1,1.4-12.1,3.7c-6.7,4-9.2,9.7-7.6,17.3c1,4.5,2.6,8.6,5,12.3c2.4,3.7,5,7.3,7.9,10.7c5.6,6.2,11.6,11.8,18,16.8
		c6.4,5.1,13,9.8,20,14.2c7,4.2,14,8.4,21.1,12.4c7.1,4,14.1,8.2,21.3,12.4c0.5,0.3,1,0.6,1.2,0.9c0.3,0.3,0.6,0.7,1,0.9
		c-0.1,0.1-0.2,0.3-0.2,0.4c0,0.1-0.1,0.3-0.2,0.4c-0.3-0.1-0.5-0.2-0.6-0.2c-0.1,0-0.3-0.1-0.4-0.2c-11.9-4.1-23.7-8.2-35.4-12.3
		c-11.7-4.1-23.4-8.2-35.2-12.3c-2.9-1-5.8-1.8-8.7-2.7c-2.9-0.8-5.8-1.6-8.5-2.3c-1-0.3-1.9-0.3-2.9-0.2c-1,0.1-1.6,0.8-1.8,1.8
		c-0.3,1.4,0,2.2,0.7,2.6c0.8,0.3,1.7,0.7,2.8,0.9c1.9,0.7,3.9,1.3,6,1.8c2.1,0.5,4,1.2,6,1.8c12.5,4.4,24.9,8.7,37.3,12.9
		c12.4,4.2,24.9,8.6,37.5,12.9c2.2,0.7,3.4,1.3,3.7,1.8c0.3,0.5,0.3,1.9,0,4.1c-0.1,0.5-0.3,1-0.5,1.4c-0.2,0.4-0.4,0.8-0.7,1
		c-0.7,1.5-1.4,3-2.2,4.5c-0.8,1.5-1.4,3-2,4.5c-0.7,1.8-0.8,3.3-0.3,4.6c0.5,1.3,1.2,2.2,2.2,2.6c2.6,1,4.6-0.4,6-4.1
		c0.7-1.5,1.2-3,1.5-4.6c0.3-1.6,0.8-3.1,1.3-4.6c0.5-1.1,1.1-2.2,1.6-3.2c0.5-1,1.3-1.9,2.3-2.6c0.3-0.3,0.9-0.3,1.8-0.2
		c1,0.1,1.8,0.3,2.7,0.6c7.3,2.5,14.4,4.9,21.5,7.4c7.1,2.5,14.2,4.9,21.5,7.2c1.9,1.2,3.8,1.9,5.5,2.1c0.7,0.1,1.3,0,1.7-0.4
		c0.5-0.4,1.1-0.8,1.7-1c-0.4-1.2-1-2.5-1.6-3.7c-0.3-0.3-0.6-0.4-1-0.5c-0.4-0.1-0.8-0.2-1-0.5c-7.4-3.1-14.7-6.3-22-9.6
		c-7.3-3.2-14.6-6.6-22.2-10.2c3.7-3.7,7.3-7.2,10.7-10.5c3.4-3.3,6.8-6.7,10.1-10.3c3.2-3.3,6.2-6.5,9.2-9.8
		c3-3.2,5.9-6.6,8.6-10.2c3.6-4.8,6.5-9.8,8.8-15.1c2.3-5.3,3.1-11.1,2.3-17.6c-0.3-1-0.6-1.9-1-2.9c-0.4-1-0.9-1.8-1.4-2.7
		c-0.3-0.3-0.8-0.4-1.4-0.5c-0.7-0.1-1.2,0-1.6,0.3c-0.3,0.3-0.5,0.7-0.7,1.3c-0.2,0.6-0.2,1.1,0.1,1.3c0.7,1.9,1,3.9,0.9,6.1
		c-0.1,2.1-0.2,4.1-0.5,6.1c-0.8,4-2.2,7.6-4.1,11c-1.9,3.4-4,6.6-6.4,9.8c-5.2,6.8-10.9,13.1-17,18.9c-6.2,5.8-12.1,11.7-17.9,17.9
		c-1.9,2.1-3.3,3.1-4,3.1c-0.8,0-2.3-0.6-4.6-1.8C110.9,537.5,110.1,536.3,110.1,534.6z M89.5,525.9c-4.7-2.7-9.4-5.4-14.1-8.3
		c-7.4-4.4-14.6-9-21.6-14c-7-4.9-13.6-10.3-19.9-16.2c-3.3-3.1-6.4-6.4-9.2-9.7c-2.9-3.3-5.3-6.9-7.2-10.9c-0.5-1.1-1-2.3-1.4-3.5
		s-0.8-2.4-1-3.5c-0.7-3.4-0.1-6.3,1.7-8.6c1.8-2.3,4.6-3.8,8.3-4.5c3.7-0.8,7.3-1,10.8-0.5c3.5,0.5,7,1.5,10.6,3
		c8.2,3.3,15.3,7.8,21.4,13.5c6,5.7,11.3,12.2,15.8,19.6c4.7,7.4,8.7,15.1,12,23c3.4,7.9,5.9,16.2,7.7,24.9c0,0.3,0,0.5,0.1,0.7
		c0.1,0.2,0.1,0.4,0.1,0.7c0.1,0.3,0.2,1.1,0.2,2.5C99,531.3,94.2,528.6,89.5,525.9z"/>
	<path class="st1" d="M96.9,11.2c-0.9,1.1-0.6,2.8,0.5,3.7c0.2,0.1,16.1,12.2,31.2,25.9c27.4,24.6,27.7,31.9,27.2,33.6
		c-0.7,2.1-2,3.4-4.2,4.2c-15.6,5.8-62-18.3-78.6-28.1c-1.2-0.7-2.8-0.3-3.6,0.9c-0.7,1.2-0.3,2.8,0.9,3.6c0.1,0,1.8,1.1,4.9,2.8
		c-2.9,1.5-6.7,4.2-8.3,9c-2.1,6.2,0.3,13.7,7,22.3c14.3,18.3,27.8,27.8,36.8,33.3c0.2,0.3,0.5,0.6,0.8,0.8
		c15.7,10,40.3,28.9,41.1,37.9c-1.1,0.1-4.2,0-12.7-2.7c-7.2-2.3-16-5.6-25.2-9.2c-28-10.7-41.8-15.4-46.8-12
		c-1.3,0.9-2,2.3-2.1,3.9c-0.1,5.1,4.4,11.6,14.2,20.4c7.2,6.5,17.3,14.1,30,22.7c5.9,4,11.9,7.9,17.4,11.4l-41.2-16.1
		c-1.3-0.5-2.9,0.1-3.4,1.5c-0.5,1.3,0.1,2.9,1.5,3.4l8.8,3.4c0.1,0.1,0.2,0.2,0.3,0.3c0.5,0.5,1.1,1,1.6,1.5
		c6.2,6.2,12.3,12.2,18.3,18.2c6,6,12.1,12,18.3,18.2c1.9,2.1,3.7,4.2,5.4,6.5c1.7,2.3,3.5,4.6,5.2,6.9c0.7,0.7,1.2,1.5,1.5,2.4
		c0.3,0.9,0.7,1.8,0.9,2.8c1.1,3.6-0.2,5.5-3.9,5.8c-3.3,0.4-6.4,0.3-9.2-0.2c-6.6-1.2-12.9-3-19-5.2c-6.1-2.3-12.1-4.9-18-7.9
		c-4.4-2.2-8.8-4.4-13.1-6.7c-4.4-2.3-8.8-4.6-13.1-6.9c-1-0.4-1.8-0.7-2.7-0.8c-0.8-0.1-1.5,0.3-2.1,1.4c-0.7,1.1-0.7,2-0.1,2.7
		c0.6,0.7,1.3,1.2,2.2,1.6c1.1,0.7,2.2,1.3,3.2,1.7c1,0.5,2.1,1.1,3.2,1.7c6.6,3.4,13.1,6.8,19.7,10.2c2.7,1.4,5.4,2.6,8.2,3.8
		c0.2,0.5,0.5,0.9,1,1.2c0.1,0.1,13.4,8.9,26.7,18.8c25.2,18.8,26.3,23.5,26.3,23.9c0,1.5-0.5,1.9-0.8,2.1c-1.2,0.9-5.1,1.7-17-1.9
		c-8.7-2.7-19.1-6.8-29.1-10.9c-21-8.5-32.1-12.8-36.6-9.8c-1.3,0.8-2,2.1-2,3.7c-0.1,5.1,4.3,11.4,14,19.8
		c7.1,6.2,17,13.5,29.4,21.8c4.6,3,9.2,6,13.7,8.7c-2.8-1.1-5.6-2.1-8.5-3.2c-36.6-13.5-45.3-12.7-48.7-10.5
		c-1.5,0.9-2.3,2.4-2.3,4.1c-0.1,5.1,4.4,11.6,14.2,20.4c7.2,6.5,17.3,14.1,30,22.7c5.9,4,11.9,7.9,17.4,11.4l-41.2-16.1
		c-1.3-0.5-2.9,0.1-3.4,1.5c-0.5,1.3,0.1,2.9,1.5,3.4l6.4,2.5c0,0.2,0.1,0.4,0.3,0.5c0.2,0.2,0.4,0.4,0.7,0.7
		c3.6,4.8,7.2,9.5,10.8,14.1c3.6,4.6,7.3,9.3,11,14.1c0.3,0.3,0.5,0.6,0.6,1c0.1,0.4,0.3,0.9,0.6,1.4c-2.3-1.1-4.5-2.2-6.5-3.3
		c-2-1.1-3.9-2.1-5.9-3.1c-5.6-2.6-11.3-4.9-16.9-6.9c-5.7-2-11.6-3.3-17.8-4c-2.6-0.3-5.1-0.3-7.6-0.2c-2.5,0.1-4.9,0.8-7.2,1.8
		c-3.1,1.4-5.4,3.4-6.8,6c-1.4,2.6-1.5,5.5-0.4,8.8c0.7,1.9,1.5,3.8,2.5,5.8c1,1.9,2.1,3.7,3.5,5.3c5.8,7.5,12.3,14,19.6,19.4
		c7.3,5.4,15.5,9.7,24.5,12.8c3.2,1.1,6.4,1.9,9.7,2.5c3.3,0.5,6.6,0.6,10.1,0.2c2.5-0.3,4.7-1,6.8-2.1c2.1-1.1,3.9-2.4,5.4-4
		c1.6-1.6,2.8-3.4,3.6-5.4c0.8-2.1,1.2-4.2,1-6.4c0-1.5-0.2-3.1-0.5-4.7c-0.3-1.6-0.6-3.2-0.9-4.7c0-0.1,0.1-0.3,0.2-0.4
		c1.9,1.9,3.8,3.8,5.6,5.6c1.8,1.8,3.7,3.7,5.4,5.6c1.9,1.9,3.4,4,4.4,6.4c1,2.3,1.8,4.9,2.4,7.6c1,4.5,0.5,8.2-1.3,11.1
		c-1.8,2.9-5.1,4.7-9.8,5.3c-2.5,0.3-5,0.4-7.5,0.5c-2.5,0.1-5,0-7.5-0.3c-5.2-0.7-10.1-2-14.7-3.9c-4.6-1.9-9.1-4-13.5-6.4
		c-0.4-0.3-0.8-0.5-1.1-0.7c-0.3-0.2-0.7-0.3-1.1-0.3c-0.5,0-1.1,0.1-1.7,0.2c-0.6,0.1-1,0.4-1.1,0.8c-0.3,0.4-0.4,0.9-0.3,1.5
		c0.1,0.6,0.2,1.2,0.5,1.7c0.1,0.5,0.7,1,1.6,1.2c5.3,3,10.8,5.6,16.4,7.8c5.6,2.2,11.5,3.5,17.7,3.9c3,0.3,6,0.3,9,0.1
		c3-0.2,6-0.9,8.8-2c3.7-1.4,6.6-3.5,8.7-6.4c2.1-2.9,3.1-6.3,3-10.3c-0.1-4.1-0.9-7.9-2.3-11.5c-1.4-3.6-3.4-6.9-6-10.1
		c-2.7-3.4-5.8-6.5-9.2-9.3c-3.4-2.8-6.9-5.4-10.5-7.9c-0.4-0.3-0.9-0.6-1.3-1c-0.5-0.4-0.9-0.9-1.1-1.4
		c-3.6-6.8-7.7-13.2-12.4-19.2c-3.7-4.6-7.4-9.3-11.1-14.1l52.6,20.6c1.3,0.5,2.7-0.1,3.3-1.3c0.6-1.2,0.1-2.7-1.1-3.4
		c-0.2-0.1-21.8-12.5-43.1-26.9C75.4,326.9,71.1,317,71,313.8c1-0.6,7.3-2.4,43.3,10.8c20,7.3,39.2,15.7,39.4,15.8
		c0.5,0.2,1,0.3,1.4,0.2c1,0.2,2.1-0.3,2.7-1.3c0.7-1.3,0.2-2.9-1-3.5c-0.2-0.1-21.4-11.9-42.3-25.7c-35.4-23.4-40.6-33.2-41-36.6
		c0.9-0.1,3.5,0,10.2,2.2c5.9,2,13.3,5,21.1,8.1c26.2,10.6,44,17.2,51.1,12.2c1.4-1,3-2.8,3-6.2c0-0.1,0-0.2,0-0.3
		c-0.1-2.1-0.2-6.9-28.2-27.8c-4.4-3.3-8.8-6.4-12.7-9.2c2.1,0.7,4.2,1.3,6.3,1.8c4.1,1.1,8.4,1.8,12.7,2.1c0.7-0.1,1.3-0.2,1.7-0.1
		c0.5,0.1,1.1,0,1.7-0.1c3.7-0.5,6.4-1.8,8.2-3.9c1.8-2.1,2.3-4.7,1.6-8c-0.3-1-0.5-1.9-0.8-2.9c-0.3-1-0.7-1.8-1.2-2.7
		c-1.1-1.8-2.2-3.5-3.2-5.2c-1-1.7-2.3-3.3-3.8-4.8c-7.4-7.7-14.8-15.2-22.3-22.7c-4.3-4.3-8.7-8.7-13-13l47.8,18.7
		c1.3,0.5,2.7-0.1,3.3-1.3c0.6-1.2,0.1-2.7-1.1-3.4c-0.2-0.1-21.9-12.5-43.2-27c-36.9-25-41.7-35-41.9-38.4
		c0.8-0.2,3.9-0.6,14.2,2.6c8,2.5,18,6.3,27.6,10c26.5,10.1,38.6,14.2,43.1,11.3c1.2-0.8,1.9-2,1.9-3.4c0-0.1,0-0.2,0-0.4
		c0-6.6-7.2-15.5-21.9-27.3c-1.4-1.1-2.9-2.3-4.3-3.3c5.8,1,11.8,1,16.1-1.2c3.2-1.7,5.1-4.4,5.4-8c0-0.4,0-0.8,0-1.2
		c0-10.6-12.1-24.5-36-41.4c-1.6-1.1-3.1-2.2-4.7-3.2c19.3,7.9,33,10.4,40.8,7.4c3.7-1.4,6.2-3.9,7.4-7.5c0.2-0.7,0.4-1.5,0.4-2.4
		c0-5.1-4.7-14.8-29-36.7c-15.3-13.8-31.4-26-31.5-26.1C99.4,9.9,97.8,10.1,96.9,11.2z M119.1,400.5c0.5,0.3,1,0.7,1.4,1.2
		c0.4,0.5,0.8,1.1,1,1.6c0.7,1.5,1.4,3,2.1,4.4c0.7,1.4,1.3,2.9,1.8,4.4c1.9,5.2,1.6,9.6-0.9,13c-2.5,3.5-6.5,5.3-12,5.4
		c-2.9,0.1-5.7-0.1-8.4-0.6c-2.7-0.5-5.5-1.4-8.2-2.5c-8.1-3-15.4-6.9-21.9-11.8c-6.5-4.9-12.4-10.6-17.6-17.4
		c-1.2-1.5-2.3-3.1-3.2-4.9c-0.9-1.8-1.7-3.6-2.4-5.5c-0.7-1.5-0.7-2.9,0-4.1c0.7-1.2,1.8-2.2,3.3-2.9c1.5-0.5,3.1-1,4.7-1.2
		c1.6-0.3,3.3-0.6,4.9-1c4.8,0.3,9.5,1.1,14.1,2.5c4.6,1.4,9,3,13.2,4.9c4.8,2.2,9.5,4.5,14.1,7
		C109.9,395.6,114.5,398.1,119.1,400.5z M114.2,83.5c22.5,15.8,34.5,29.3,33.8,37.8c-0.2,1.8-1,3-2.6,3.8c-6,3.1-19.9-0.1-26-3.7
		l-1.4-0.8c-8.8-5.2-23.5-13.8-40-34.8c-4.4-5.6-6.6-10.5-6.6-14.5c0-1,0.1-2,0.4-2.9c1.3-4,5.4-6,7.3-6.7
		C83.1,63.9,98.8,72.7,114.2,83.5z"/>
</g>
</svg>
